<?xml version="1.0" encoding="UTF-8"?>
<!DOCTYPE svg PUBLIC "-//W3C//DTD SVG 1.1//EN" "http://www.w3.org/Graphics/SVG/1.1/DTD/svg11.dtd">
<!-- Creator: CorelDRAW 2018 (64-Bit Evaluation Version) -->
<svg xmlns="http://www.w3.org/2000/svg" xml:space="preserve" width="1.9913mm" height="2.032mm" version="1.1" style="shape-rendering:geometricPrecision; text-rendering:geometricPrecision; image-rendering:optimizeQuality; fill-rule:evenodd; clip-rule:evenodd"
viewBox="0 0 3.68 3.76"
 xmlns:xlink="http://www.w3.org/1999/xlink">
 <defs>
  <style type="text/css">
   <![CDATA[
    .fil1 {fill:#00AA63;fill-rule:nonzero}
    .fil0 {fill:#1D85FF;fill-rule:nonzero}
    .fil3 {fill:#E34542;fill-rule:nonzero}
    .fil2 {fill:#EFBF29;fill-rule:nonzero}
   ]]>
  </style>
 </defs>
 <g id="Layer_x0020_1">
  <metadata id="CorelCorpID_0Corel-Layer"/>
  <g id="_2210337509088">
   <path class="fil0" d="M3.68 1.92c0,-0.13 -0.01,-0.26 -0.03,-0.38l-1.77 0 0 0.73 1.01 0c-0.04,0.23 -0.18,0.43 -0.37,0.57l0 0.47 0.61 0c0.36,-0.33 0.56,-0.81 0.56,-1.38l0 0z"/>
   <path class="fil1" d="M1.88 3.76c0.51,0 0.93,-0.17 1.24,-0.45l-0.61 -0.47c-0.17,0.11 -0.38,0.18 -0.64,0.18 -0.49,0 -0.9,-0.33 -1.05,-0.77l-0.63 0 0 0.49c0.31,0.61 0.94,1.03 1.68,1.03l0 0z"/>
   <path class="fil2" d="M0.83 2.24c-0.04,-0.11 -0.06,-0.23 -0.06,-0.36 0,-0.12 0.02,-0.24 0.06,-0.36l0 -0.49 -0.63 0c-0.13,0.25 -0.2,0.54 -0.2,0.84 0,0.3 0.07,0.59 0.2,0.84l0.63 -0.49 0 0z"/>
   <path class="fil3" d="M1.88 0.75c0.28,0 0.52,0.09 0.72,0.28l0.54 -0.54c-0.33,-0.3 -0.75,-0.49 -1.26,-0.49 -0.73,0 -1.37,0.42 -1.68,1.03l0.63 0.49c0.15,-0.44 0.56,-0.77 1.05,-0.77l0 0z"/>
  </g>
 </g>
</svg>
